<?xml version="1.0" standalone="no"?>
<!DOCTYPE svg PUBLIC "-//W3C//DTD SVG 20010904//EN"
 "http://www.w3.org/TR/2001/REC-SVG-20010904/DTD/svg10.dtd">
<svg version="1.0" xmlns="http://www.w3.org/2000/svg"
 width="554.000000pt" height="554.000000pt" viewBox="0 0 554.000000 554.000000"
 preserveAspectRatio="xMidYMid meet">

<g transform="translate(0.000000,554.000000) scale(0.100000,-0.100000)"
fill="#000000" stroke="none">
<path d="M737 4599 c-30 -17 -75 -125 -82 -195 -9 -83 9 -184 47 -261 29 -59
101 -138 218 -239 25 -22 63 -55 85 -75 37 -33 87 -78 428 -378 65 -57 114
-107 110 -111 -4 -4 -39 -18 -78 -30 -94 -30 -240 -100 -293 -139 -24 -18 -42
-34 -40 -36 2 -2 75 7 163 21 87 13 163 23 168 21 5 -1 -14 -15 -43 -31 -67
-36 -113 -77 -153 -135 -39 -57 -63 -78 -102 -90 l-30 -8 28 -12 c62 -24 122
-6 189 59 44 43 148 117 226 160 37 21 45 22 52 10 6 -8 10 -23 10 -34 0 -29
57 -190 91 -258 37 -73 120 -186 178 -243 23 -21 41 -43 41 -47 0 -4 -25 -8
-55 -8 l-55 0 0 58 c0 32 -5 63 -12 70 -7 7 -38 12 -70 12 -68 0 -78 -12 -78
-89 l0 -51 -382 -2 -383 -3 0 -230 0 -230 347 -5 348 -5 -84 -72 c-46 -40 -89
-73 -94 -73 -6 0 -27 20 -48 45 -20 25 -41 45 -46 45 -16 0 -108 -84 -108 -99
0 -8 19 -34 42 -59 l41 -45 -35 -31 c-311 -268 -538 -471 -538 -480 0 -16 280
-336 294 -336 6 0 135 108 286 241 151 132 280 242 287 245 6 3 30 -15 53 -40
24 -25 47 -46 52 -46 14 0 108 81 108 93 0 6 -19 33 -41 60 -41 47 -41 49 -23
66 19 18 255 223 285 248 14 12 21 6 57 -55 77 -129 212 -226 360 -257 87 -19
260 -19 357 0 111 21 209 71 277 142 53 56 118 165 118 198 0 25 17 17 73 -32
29 -27 86 -77 127 -113 41 -36 94 -83 119 -106 l44 -41 -42 -53 -42 -53 38
-39 c64 -66 69 -67 124 -12 44 44 50 46 66 32 10 -8 130 -113 267 -234 282
-249 281 -248 299 -241 21 8 287 314 287 330 0 8 -28 38 -62 68 -35 29 -65 56
-68 59 -3 3 -77 68 -165 145 -88 77 -165 144 -171 150 -6 5 -26 24 -46 41 -53
46 -53 50 -6 105 l43 51 -53 49 c-29 27 -57 49 -61 49 -5 0 -28 -21 -51 -46
-39 -43 -45 -46 -64 -34 -27 17 -157 133 -153 137 2 1 183 4 403 6 351 3 406
5 454 21 140 46 244 141 294 267 36 93 30 135 -24 161 -32 16 -80 18 -555 18
l-520 0 -52 98 c-50 95 -51 101 -46 160 l6 62 -43 41 -42 41 20 71 c12 40 29
107 39 151 l18 78 85 77 c48 42 148 130 225 196 362 314 544 476 584 519 115
126 147 338 73 486 -29 59 -65 85 -104 75 -22 -6 -86 -56 -178 -139 -19 -17
-102 -90 -185 -161 -82 -71 -166 -144 -185 -161 -92 -83 -366 -322 -393 -344
-20 -16 -32 -20 -35 -12 -14 44 -119 181 -196 258 -131 130 -270 216 -430 264
-275 84 -539 54 -791 -90 -132 -76 -325 -265 -384 -377 -6 -13 -15 -23 -19
-23 -4 0 -59 46 -122 102 -63 55 -146 129 -185 162 -38 34 -112 99 -165 146
-223 201 -417 368 -437 378 -27 15 -62 15 -86 1z m81 -51 c19 -19 14 -27 -28
-39 -49 -15 -67 -3 -44 29 17 24 53 29 72 10z m78 -69 l22 -20 -25 -45 -25
-45 -34 38 c-18 21 -33 40 -33 43 0 5 59 47 68 49 3 1 15 -8 27 -20z m3609 5
c14 -9 41 -16 61 -16 l36 0 -52 -49 c-98 -94 -105 -178 -25 -284 15 -19 24
-38 21 -43 -3 -5 -34 -12 -70 -16 -35 -3 -85 -13 -112 -21 l-47 -14 45 47 c63
65 82 105 82 177 1 47 -5 73 -26 113 l-27 51 41 36 c23 19 43 35 45 35 2 0 15
-7 28 -16z m-3743 -67 c52 -49 71 -92 66 -146 -4 -43 -50 -131 -68 -131 -16 0
-52 108 -57 171 -6 69 2 139 16 139 5 0 24 -15 43 -33z m394 -167 c103 -91
233 -205 289 -255 56 -49 138 -121 183 -160 54 -47 79 -75 75 -85 -26 -67 -66
-177 -69 -188 -5 -18 -17 -10 -110 73 -139 125 -256 228 -412 365 -188 164
-224 220 -207 319 7 43 41 104 55 99 5 -2 93 -77 196 -168z m-262 -96 l26 -47
-45 6 c-26 2 -49 7 -52 10 -5 5 34 77 42 77 2 0 15 -21 29 -46z m27 -99 c74
-19 119 -46 141 -83 18 -30 60 -172 51 -172 -4 0 -221 189 -283 247 l-25 23
29 0 c15 0 55 -7 87 -15z m3293 -160 c-14 -44 -31 -98 -37 -120 l-12 -40 -91
-6 c-50 -4 -101 -12 -113 -19 -34 -18 -37 -4 -5 23 16 14 85 74 154 135 69 60
126 109 127 108 1 -1 -9 -38 -23 -81z m-2956 -87 c23 -21 42 -40 42 -41 0 -2
-28 -2 -61 -1 -68 1 -73 5 -83 71 -3 23 -9 50 -13 60 -7 18 20 -3 115 -89z
m97 -107 c77 -35 133 -111 150 -203 4 -21 4 -38 0 -38 -8 0 -159 129 -250 213
l-50 46 55 0 c32 0 72 -7 95 -18z m2465 -129 c-10 -26 -21 -70 -25 -97 -12
-79 -18 -85 -80 -85 l-55 0 0 44 c0 37 5 47 33 69 17 14 55 46 82 71 28 25 53
45 57 46 3 0 -2 -21 -12 -48z m-2233 -54 c25 -26 30 -39 26 -60 -4 -21 -11
-28 -28 -28 -20 0 -24 7 -30 43 -3 23 -9 50 -11 60 -8 26 9 20 43 -15z m270
-407 c6 -3 13 -25 17 -49 15 -101 88 -194 191 -243 83 -40 193 -41 275 -3 101
46 181 147 196 246 4 24 12 46 18 50 20 14 481 9 494 -4 7 -7 12 -36 12 -66
l0 -55 -57 7 c-32 4 -93 15 -135 25 -43 10 -78 15 -78 10 0 -26 139 -103 208
-115 68 -12 69 -14 77 -128 4 -57 11 -109 15 -116 11 -17 26 38 41 145 6 44
12 81 13 82 1 2 27 7 56 13 29 6 76 21 104 34 52 24 141 84 134 91 -2 2 -39
-5 -83 -15 -44 -10 -108 -22 -142 -26 l-63 -7 0 55 c0 35 5 60 14 67 9 8 74
11 212 9 230 -3 218 4 183 -108 -17 -54 -28 -74 -48 -85 -53 -27 -75 -61 -73
-115 1 -43 -4 -57 -35 -97 -80 -108 -211 -216 -334 -278 -329 -166 -743 -122
-1036 109 -102 81 -188 185 -246 296 -50 95 -97 219 -97 255 0 23 2 24 79 23
43 0 83 -3 88 -7z m1746 -249 c36 -32 16 -97 -36 -115 -26 -10 -74 18 -81 47
-18 74 59 119 117 68z m74 -260 c42 -78 52 -106 44 -116 -14 -16 -89 -51 -97
-44 -3 3 -16 59 -29 124 -23 111 -23 120 -8 132 10 7 21 11 26 9 6 -2 34 -49
64 -105z m-149 51 c42 -196 45 -225 31 -234 -33 -21 -36 -8 -53 199 -8 91 6
113 22 35z m-64 -137 l7 -106 -35 0 -36 0 5 78 c9 129 14 164 27 180 11 12 14
10 19 -16 3 -17 9 -78 13 -136z m-1674 -211 l0 -325 -30 0 -30 0 0 325 0 325
30 0 30 0 0 -325z m1578 258 c-3 -19 -48 -32 -48 -14 0 10 28 30 43 31 5 0 7
-8 5 -17z m-2300 -105 c2 -19 -2 -28 -17 -33 -40 -12 -71 -63 -71 -115 0 -63
13 -90 56 -118 26 -17 34 -29 32 -45 -3 -19 -10 -22 -55 -25 l-53 -3 0 186 0
186 53 -3 c48 -3 52 -5 55 -30z m612 -20 l0 -52 -43 42 c-23 23 -47 42 -52 42
-6 0 -39 -29 -74 -65 -35 -36 -66 -65 -70 -65 -4 0 -36 29 -71 65 -35 36 -69
65 -74 65 -12 0 -166 -151 -166 -162 0 -9 160 -168 169 -168 4 0 36 29 71 65
35 36 69 65 74 65 6 0 41 -30 78 -67 l68 -67 45 44 45 44 0 -52 0 -52 -280 0
c-217 0 -280 3 -281 13 -1 6 0 22 1 34 1 24 -32 63 -55 63 -18 0 -45 50 -45
85 0 27 31 65 54 65 25 0 46 30 40 56 -14 55 -18 54 286 54 l280 0 0 -52z
m350 25 c0 -27 -56 -88 -152 -165 l-38 -30 0 111 0 111 95 0 95 0 0 -27z
m1325 -20 c-4 -27 -8 -50 -10 -52 -5 -5 -105 82 -105 92 0 4 28 7 61 7 l61 0
-7 -47z m1262 10 c-10 -61 -56 -122 -117 -157 l-55 -31 -474 -3 -473 -3 -37
26 c-21 14 -49 38 -64 53 l-26 27 124 1 c122 2 123 2 189 39 37 21 74 48 83
61 l15 24 420 0 421 0 -6 -37z m214 21 c10 -13 10 -24 0 -62 -37 -140 -164
-253 -316 -281 -36 -7 -215 -11 -465 -11 l-406 0 -55 50 -54 49 452 1 c430 0
455 1 507 20 75 29 139 98 162 176 9 33 18 62 21 67 2 4 35 7 72 7 50 0 72 -4
82 -16z m-2531 -226 l0 -88 -27 6 c-53 13 -183 66 -203 82 -18 16 -19 23 -10
87 18 126 4 120 130 57 l110 -55 0 -89z m886 102 c13 -88 8 -96 -100 -145
-125 -57 -116 -61 -116 44 l0 91 93 44 c50 24 97 43 102 42 6 -2 15 -36 21
-76z m314 -166 c118 -104 243 -213 278 -243 34 -30 62 -60 62 -68 0 -16 -119
-153 -133 -153 -7 0 -376 320 -437 379 -10 9 -17 44 -21 100 -4 47 -10 118
-14 156 l-8 70 29 -26 c16 -14 126 -111 244 -215z m-2147 74 c-26 -26 -52 -48
-57 -48 -13 0 -96 81 -96 94 0 6 21 32 47 58 l47 48 53 -52 53 -52 -47 -48z
m322 58 c9 -23 -75 -112 -98 -103 -8 3 -31 26 -52 52 l-38 46 48 49 49 49 42
-37 c23 -20 45 -45 49 -56z m768 -11 c43 -8 99 -15 123 -15 l45 0 -3 -87 -3
-87 -55 2 c-62 3 -179 20 -192 28 -10 6 -11 174 0 174 4 0 42 -7 85 -15z m475
-72 l-3 -88 -58 -12 c-33 -6 -89 -13 -125 -15 l-67 -3 0 85 0 85 70 7 c39 4
88 11 110 17 79 18 76 21 73 -76z m260 -187 c-26 -21 -179 -96 -197 -96 -8 0
-11 25 -9 82 l3 81 51 16 c27 10 77 31 110 48 l59 31 3 -71 c3 -65 1 -74 -20
-91z m-1080 135 c20 -10 74 -31 120 -46 l82 -27 0 -75 0 -75 -27 7 c-43 10
-186 79 -205 99 -13 13 -18 34 -18 77 0 32 2 59 5 59 3 0 22 -8 43 -19z m440
-108 l72 -6 0 -83 c0 -97 11 -91 -130 -69 -141 23 -130 15 -130 102 l0 76 58
-7 c31 -4 90 -9 130 -13z m382 -58 c0 -89 1 -88 -129 -104 -143 -18 -132 -24
-129 72 l3 82 94 7 c52 4 96 10 99 13 3 3 18 5 34 5 l28 0 0 -75z m368 -13
c-31 -6 -47 5 -41 27 5 21 5 21 32 -2 25 -20 26 -22 9 -25z m-1268 -6 c0 -19
-7 -25 -32 -29 -18 -3 -42 -8 -53 -12 -12 -4 -1 11 24 34 48 42 61 44 61 7z
m92 -16 c58 -34 227 -90 321 -106 69 -12 134 -15 257 -11 188 5 265 21 411 86
86 38 89 38 89 18 0 -70 -67 -210 -132 -278 -175 -182 -585 -197 -803 -29 -85
66 -159 190 -180 303 -8 43 -7 43 37 17z m1268 -50 c48 -25 77 -64 91 -128 22
-95 10 -93 -121 24 -66 58 -117 110 -114 115 10 17 104 10 144 -11z m-1965
-73 c39 -45 133 -153 209 -241 130 -148 138 -160 121 -172 -10 -8 -24 -14 -31
-14 -6 0 -97 97 -200 216 -239 274 -229 261 -214 279 23 28 45 15 115 -68z
m2595 68 c6 -8 10 -19 8 -24 -1 -5 -97 -115 -211 -246 -203 -230 -210 -236
-228 -219 -11 10 -17 24 -15 31 10 24 410 473 422 473 6 0 17 -7 24 -15z
m-2180 -80 c-6 -16 -11 -57 -11 -92 -1 -65 -5 -71 -42 -51 -12 6 -42 16 -66
23 l-44 11 83 72 c46 40 85 70 87 68 2 -2 -1 -16 -7 -31z m1748 -79 c21 -19
22 -21 5 -27 -10 -4 -28 -8 -40 -8 -20 -1 -23 4 -23 40 0 45 1 45 58 -5z m542
-136 c0 -4 -24 -12 -52 -19 -29 -6 -64 -14 -77 -18 l-23 -6 7 74 c4 41 9 77
12 82 5 8 133 -100 133 -113z m-195 16 c-3 -36 -11 -69 -17 -72 -14 -9 -122
-33 -127 -29 -4 5 143 173 148 169 2 -2 0 -33 -4 -68z m-266 35 c11 -7 9 -15
-10 -40 -28 -39 -42 -39 -85 -1 -30 26 -32 30 -16 39 21 13 92 14 111 2z m489
-174 c-143 -167 -186 -212 -193 -205 -9 8 3 24 129 166 102 115 158 149 64 39z
m-48 56 c-1 -5 -36 -46 -79 -93 l-78 -84 5 54 c8 88 13 96 79 113 71 19 73 19
73 10z m-197 -100 c-13 -115 -10 -113 -86 -47 -37 32 -65 59 -63 61 5 5 127
40 144 42 9 1 11 -13 5 -56z m417 -1 l64 -59 -74 -20 c-41 -11 -78 -18 -81
-14 -7 7 12 151 21 151 3 0 34 -26 70 -58z m-135 -19 c-2 -16 -7 -44 -10 -64
-5 -34 -9 -37 -62 -52 -31 -9 -59 -15 -61 -12 -5 4 126 155 134 155 2 0 2 -12
-1 -27z m294 -121 c26 -21 32 -32 25 -44 -8 -13 -78 -93 -195 -222 l-37 -40
-35 29 c-20 17 -35 35 -34 42 3 17 220 262 232 263 6 0 26 -13 44 -28z m-3500
-114 c61 -69 111 -131 111 -136 0 -15 -38 -44 -53 -40 -8 1 -66 61 -128 132
l-113 129 28 24 c16 13 32 23 36 21 5 -2 58 -60 119 -130z m3299 48 c-79 -91
-87 -90 -70 4 7 43 9 45 62 62 30 9 61 17 68 17 7 1 -20 -37 -60 -83z m-123
-34 c-10 -91 -16 -94 -77 -37 -29 27 -54 53 -56 56 -2 4 23 15 55 24 32 9 63
17 68 19 16 5 17 0 10 -62z"/>
<path d="M2595 2711 c-56 -17 -85 -59 -85 -120 0 -88 101 -140 178 -92 36 23
52 55 52 106 0 66 -82 126 -145 106z"/>
</g>
</svg>
