<?xml version="1.0" standalone="no"?>
<!DOCTYPE svg PUBLIC "-//W3C//DTD SVG 20010904//EN"
 "http://www.w3.org/TR/2001/REC-SVG-20010904/DTD/svg10.dtd">
<svg version="1.0" xmlns="http://www.w3.org/2000/svg"
 width="340.000000pt" height="340.000000pt" viewBox="0 0 340.000000 340.000000"
 preserveAspectRatio="xMidYMid meet">

<g transform="translate(0.000000,340.000000) scale(0.100000,-0.100000)"
fill="#000000" stroke="none">
<path d="M0 1700 l0 -1700 1700 0 1700 0 0 1700 0 1700 -1700 0 -1700 0 0
-1700z m490 1451 c51 -27 83 -92 76 -156 -3 -27 -8 -59 -11 -70 -3 -11 -2 -25
2 -30 5 -6 110 -104 235 -218 l227 -208 -28 -47 c-15 -26 -34 -65 -43 -87 -9
-22 -21 -40 -27 -40 -6 0 -122 101 -257 225 -136 124 -249 225 -253 225 -3 -1
-31 -7 -62 -14 -31 -8 -72 -11 -90 -7 -82 15 -137 83 -124 152 7 42 63 91 112
99 61 10 63 12 63 55 0 53 23 96 63 120 40 25 73 25 117 1z m2533 5 c44 -18
67 -57 74 -122 6 -52 7 -54 35 -54 74 0 138 -57 138 -122 0 -54 -26 -94 -75
-118 -49 -24 -85 -25 -151 -5 -47 14 -49 14 -74 -8 -178 -161 -264 -240 -368
-336 l-122 -114 -11 33 c-7 17 -27 62 -47 98 l-35 66 22 18 c12 9 118 105 236
213 l213 196 -9 32 c-25 87 -1 174 60 214 39 26 68 29 114 9z m-1165 -372
c158 -33 277 -98 400 -220 45 -46 82 -87 82 -93 0 -8 -190 -11 -635 -11 -478
0 -635 3 -635 12 0 6 42 52 93 103 77 76 108 99 187 138 167 82 338 106 508
71z m734 -559 c53 -8 132 -28 175 -45 164 -64 238 -60 -1060 -60 -647 0 -1177
2 -1177 5 0 10 98 54 165 74 39 12 97 25 130 30 33 5 422 9 865 10 660 1 822
-2 902 -14z m-112 -226 c0 -309 -208 -599 -508 -709 -496 -181 -1013 161
-1049 693 l-6 97 781 0 782 0 0 -81z m-1223 -663 c1 -1 -6 -47 -16 -103 l-17
-103 -254 -232 c-140 -127 -293 -266 -338 -309 l-84 -77 12 -55 c23 -100 -25
-193 -108 -212 -73 -16 -142 51 -142 136 l0 46 -52 7 c-39 6 -59 15 -84 40
-54 54 -57 107 -9 165 43 51 98 59 222 35 30 -6 46 8 378 312 191 176 366 335
389 355 l41 37 30 -21 c17 -11 31 -21 32 -21z m1180 -163 c119 -109 291 -267
382 -351 151 -139 169 -152 196 -147 97 16 142 17 177 2 47 -20 78 -69 78
-124 0 -60 -50 -110 -120 -119 l-50 -7 0 -39 c0 -70 -48 -132 -110 -143 -99
-17 -176 109 -141 232 9 31 7 35 -47 85 -146 136 -202 188 -407 375 l-220 200
-15 97 -16 98 26 18 c14 11 31 20 38 20 7 0 110 -89 229 -197z m-1064 102 l67
-29 0 -58 c0 -40 -4 -58 -13 -58 -12 0 -148 47 -154 54 -7 7 19 127 26 124 4
-2 37 -16 74 -33z m752 -47 l7 -45 -72 -27 c-100 -37 -100 -37 -100 34 0 41 4
60 13 60 6 0 39 13 72 28 68 33 68 33 80 -50z m-529 -18 c38 -5 72 -10 77 -10
4 0 7 -25 7 -55 l0 -55 -38 0 c-46 0 -154 19 -164 29 -4 3 -5 30 -1 60 5 48 8
52 28 47 12 -3 53 -10 91 -16z m329 -14 c13 -67 6 -80 -55 -93 -30 -6 -76 -12
-102 -12 l-48 -1 0 54 0 53 88 15 c48 8 92 16 99 17 7 0 15 -14 18 -33z m-573
-82 l78 -27 0 -68 c0 -40 -4 -69 -10 -69 -6 0 -44 14 -85 31 l-75 32 0 63 c0
35 3 64 7 64 4 0 43 -12 85 -26z m788 -38 l0 -64 -75 -31 c-42 -18 -80 -29
-85 -26 -6 3 -10 34 -10 69 l0 63 73 25 c39 14 78 26 85 27 8 1 12 -18 12 -63z
m-542 -20 c45 -6 82 -14 82 -18 0 -5 0 -35 0 -68 l0 -60 -52 1 c-29 0 -78 6
-108 12 -47 10 -55 15 -54 35 4 130 2 124 27 116 12 -4 59 -12 105 -18z m339
-110 c-6 -15 -109 -36 -175 -36 l-42 0 0 70 0 70 38 1 c20 1 66 6 102 13 l65
11 8 -58 c5 -32 7 -64 4 -71z m-613 -1 c121 -53 208 -70 376 -70 168 0 263 18
379 71 29 13 56 24 59 24 12 0 -8 -111 -28 -158 -26 -60 -92 -125 -156 -153
-135 -60 -340 -64 -488 -8 -61 22 -139 86 -163 133 -28 54 -56 186 -39 186 2
0 29 -11 60 -25z"/>
<path d="M1310 2011 c-96 -20 -170 -87 -196 -180 -54 -182 125 -361 307 -307
217 62 249 360 50 460 -54 27 -112 37 -161 27z"/>
<path d="M2015 2013 c-88 -20 -150 -65 -188 -137 -28 -54 -30 -165 -3 -216 59
-113 177 -169 289 -136 76 22 129 64 161 127 62 126 13 275 -113 338 -38 20
-113 32 -146 24z"/>
<path d="M1670 1563 c-28 -10 -59 -46 -70 -79 -22 -66 34 -134 111 -134 47 0
99 56 99 107 0 47 -22 81 -66 99 -35 15 -49 16 -74 7z"/>
</g>
</svg>
